<?xml version="1.0" encoding="utf-8"?>
<!-- Generator: Adobe Illustrator 23.0.5, SVG Export Plug-In . SVG Version: 6.00 Build 0)  -->
<svg version="1.1" id="Layer_1" xmlns="http://www.w3.org/2000/svg" xmlns:xlink="http://www.w3.org/1999/xlink" x="0px" y="0px"
	 viewBox="0 0 128 128" style="enable-background:new 0 0 128 128;" xml:space="preserve">
<style type="text/css">
	.st0{fill:#427D9D;stroke:#427D9D;stroke-width:0.75;stroke-linecap:round;stroke-linejoin:round;stroke-miterlimit:10;}
	.st1{clip-path:url(#SVGID_1_);}
	
		.st2{fill:#DDF2FD;fill-opacity:0.6;stroke:#DDF2FD;stroke-width:0.71;stroke-linecap:round;stroke-linejoin:round;stroke-miterlimit:10;stroke-opacity:0.6;}
	.st3{fill:none;stroke:#FFFFFF;stroke-width:15;stroke-linejoin:round;stroke-miterlimit:10;}
</style>
<circle class="st0" cx="64" cy="64" r="64"/>
<g>
	<defs>
		<rect id="SVGID_3_" width="128" height="128"/>
	</defs>
	<clipPath id="SVGID_1_">
		<use xlink:href="#SVGID_3_"  style="overflow:visible;"/>
	</clipPath>
	<g class="st1">
		<circle class="st2" cx="49.6" cy="105" r="6.8"/>
		<circle class="st2" cx="31.8" cy="82.3" r="6.8"/>
		<circle class="st2" cx="60.9" cy="70.1" r="6.8"/>
		<circle class="st2" cx="74.8" cy="39.7" r="6.8"/>
		<circle class="st2" cx="41.6" cy="76.9" r="6.8"/>
		<circle class="st2" cx="51" cy="69.6" r="6.8"/>
		<circle class="st2" cx="48.9" cy="66.6" r="6.8"/>
		<circle class="st2" cx="76.7" cy="106.8" r="6.8"/>
		<circle class="st2" cx="59.5" cy="45.7" r="6.8"/>
		<circle class="st2" cx="28" cy="61.8" r="6.8"/>
		<circle class="st2" cx="37" cy="66.1" r="6.8"/>
		<circle class="st2" cx="47" cy="82.7" r="6.8"/>
		<circle class="st2" cx="62.8" cy="71.4" r="6.8"/>
		<circle class="st2" cx="57.1" cy="72.8" r="6.8"/>
		<circle class="st2" cx="28.8" cy="47.8" r="6.8"/>
		<circle class="st2" cx="63.9" cy="76.6" r="6.8"/>
		<circle class="st2" cx="63.6" cy="59.5" r="6.8"/>
		<circle class="st2" cx="60.5" cy="100.9" r="6.8"/>
		<circle class="st2" cx="12.3" cy="62.5" r="6.8"/>
		<circle class="st2" cx="64.9" cy="59.8" r="6.8"/>
		<circle class="st2" cx="122.2" cy="16.2" r="6.8"/>
		<circle class="st2" cx="31.4" cy="93.4" r="6.8"/>
		<circle class="st2" cx="79.4" cy="45.7" r="6.8"/>
		<circle class="st2" cx="72.4" cy="36.7" r="6.8"/>
		<circle class="st2" cx="44.9" cy="70.5" r="6.8"/>
		<circle class="st2" cx="74" cy="74.1" r="6.8"/>
		<circle class="st2" cx="18.4" cy="112.9" r="6.8"/>
		<circle class="st2" cx="67.8" cy="92.7" r="6.8"/>
		<circle class="st2" cx="73" cy="55" r="6.8"/>
		<circle class="st2" cx="88.4" cy="65.1" r="6.8"/>
		<circle class="st2" cx="55" cy="82.6" r="6.8"/>
		<circle class="st2" cx="76.3" cy="40.3" r="6.8"/>
		<circle class="st2" cx="43.5" cy="55.6" r="6.8"/>
		<circle class="st2" cx="49.1" cy="71" r="6.8"/>
		<circle class="st2" cx="18.8" cy="94.4" r="6.8"/>
		<circle class="st2" cx="64.4" cy="76.7" r="6.8"/>
		<circle class="st2" cx="51.4" cy="48.8" r="6.8"/>
		<circle class="st2" cx="84.6" cy="85.4" r="6.8"/>
		<circle class="st2" cx="42.7" cy="109.9" r="6.8"/>
		<circle class="st2" cx="28.5" cy="85.9" r="6.8"/>
		<circle class="st2" cx="47.9" cy="70.1" r="6.8"/>
		<circle class="st2" cx="92.8" cy="36.5" r="6.8"/>
		<circle class="st2" cx="64.3" cy="83.4" r="6.8"/>
		<circle class="st2" cx="58.9" cy="49" r="6.8"/>
		<circle class="st2" cx="54.9" cy="97.5" r="6.8"/>
		<circle class="st2" cx="94.1" cy="54.4" r="6.8"/>
		<circle class="st2" cx="65.3" cy="37.7" r="6.8"/>
		<circle class="st2" cx="62.5" cy="28.9" r="6.8"/>
		<circle class="st2" cx="27.8" cy="87.8" r="6.8"/>
		<circle class="st2" cx="37.4" cy="66.7" r="6.8"/>
		<circle class="st2" cx="65.8" cy="85.5" r="6.8"/>
		<circle class="st2" cx="34.4" cy="66.7" r="6.8"/>
		<circle class="st2" cx="69.2" cy="60.1" r="6.8"/>
		<circle class="st2" cx="36.7" cy="53.3" r="6.8"/>
		<circle class="st2" cx="62.3" cy="67.3" r="6.8"/>
		<circle class="st2" cx="82.2" cy="94.4" r="6.8"/>
		<circle class="st2" cx="18.2" cy="116.6" r="6.8"/>
		<circle class="st2" cx="67.2" cy="56.7" r="6.8"/>
		<circle class="st2" cx="119.5" cy="27.6" r="6.8"/>
		<circle class="st2" cx="39.9" cy="104.7" r="6.8"/>
		<circle class="st2" cx="72.6" cy="56" r="6.8"/>
		<circle class="st2" cx="50.8" cy="53.5" r="6.8"/>
		<circle class="st2" cx="88.7" cy="5.8" r="6.8"/>
		<circle class="st2" cx="87.8" cy="57.1" r="6.8"/>
		<circle class="st2" cx="48.4" cy="85" r="6.8"/>
		<circle class="st2" cx="53.1" cy="79.3" r="6.8"/>
		<circle class="st2" cx="46.6" cy="67.6" r="6.8"/>
		<circle class="st2" cx="97.7" cy="34" r="6.8"/>
		<circle class="st2" cx="37.7" cy="96.1" r="6.8"/>
		<circle class="st2" cx="60.9" cy="67.5" r="6.8"/>
		<circle class="st2" cx="25" cy="82.3" r="6.8"/>
		<circle class="st2" cx="75.3" cy="75.4" r="6.8"/>
		<circle class="st2" cx="66.6" cy="67.9" r="6.8"/>
		<circle class="st2" cx="92.3" cy="65.8" r="6.8"/>
		<circle class="st2" cx="56.2" cy="99.3" r="6.8"/>
		<circle class="st2" cx="49.2" cy="101.5" r="6.8"/>
		<circle class="st2" cx="63.9" cy="23.6" r="6.8"/>
		<circle class="st2" cx="92.5" cy="20.6" r="6.8"/>
		<circle class="st2" cx="76.9" cy="52.3" r="6.8"/>
		<circle class="st2" cx="67.8" cy="67.4" r="6.8"/>
		<circle class="st2" cx="87.2" cy="13.7" r="6.8"/>
		<circle class="st2" cx="65.7" cy="41.8" r="6.8"/>
		<circle class="st2" cx="51.6" cy="40.4" r="6.8"/>
		<circle class="st2" cx="92.2" cy="23.2" r="6.8"/>
		<circle class="st2" cx="69.6" cy="51" r="6.8"/>
		<circle class="st2" cx="57.1" cy="68.9" r="6.8"/>
		<circle class="st2" cx="58.4" cy="80.6" r="6.8"/>
		<circle class="st2" cx="5.8" cy="84.2" r="6.8"/>
		<circle class="st2" cx="35.6" cy="59.2" r="6.8"/>
		<circle class="st2" cx="107.9" cy="46.5" r="6.8"/>
		<circle class="st2" cx="105.9" cy="47.1" r="6.8"/>
		<circle class="st2" cx="15.2" cy="122.2" r="6.8"/>
		<circle class="st2" cx="70.7" cy="77.1" r="6.8"/>
		<circle class="st2" cx="56.2" cy="62.8" r="6.8"/>
		<circle class="st2" cx="57.5" cy="60.3" r="6.8"/>
		<circle class="st2" cx="70.8" cy="24.6" r="6.8"/>
		<circle class="st2" cx="70.3" cy="48.8" r="6.8"/>
		<circle class="st2" cx="79.3" cy="52.8" r="6.8"/>
		<circle class="st2" cx="50.9" cy="66.3" r="6.8"/>
		<circle class="st2" cx="107" cy="59" r="6.8"/>
	</g>
</g>
<line class="st3" x1="8" y1="96.2" x2="120" y2="31"/>
</svg>
