<svg id="Layer_1" data-name="Layer 1" xmlns="http://www.w3.org/2000/svg" xmlns:xlink="http://www.w3.org/1999/xlink" viewBox="0 0 800 180"><defs><style>.cls-1,.cls-4,.cls-5,.cls-6,.cls-8{fill:none;}.cls-2{clip-path:url(#clip-path);}.cls-3{fill:#ec2027;}.cls-4,.cls-5,.cls-6,.cls-8{stroke:#58595b;stroke-miterlimit:10;stroke-width:0.77px;}.cls-4{stroke-dasharray:5.06 5.06;}.cls-5{stroke-dasharray:4.98 4.98;}.cls-7{clip-path:url(#clip-path-2);}.cls-8{stroke-dasharray:5.05 5.05;}.cls-9{clip-path:url(#clip-path-3);}</style><clipPath id="clip-path"><rect id="SVGID" class="cls-1" x="20" y="20.72" width="241.36" height="138.48"/></clipPath><clipPath id="clip-path-2"><rect id="SVGID-2" data-name="SVGID" class="cls-1" x="279.65" y="20.72" width="240.48" height="138.48"/></clipPath><clipPath id="clip-path-3"><rect id="SVGID-3" data-name="SVGID" class="cls-1" x="538.64" y="20.72" width="241.3" height="138.48"/></clipPath></defs><title>elemen-grafis-hut-ri-2024</title><g class="cls-2"><path class="cls-3" d="M22.48,157.06c6.53-6,4.07-16.34,8.42-23.49,2.13-3.51,7.63-4.95,11.55-4.54C49,129.7,55,133.52,60,127.11c2.67-3.43,4.75-10.5,10.14-9.87,5,.59,7.83,4.74,8.51,9.42.36,2.44-.12,4.58-.35,7-.47,4.79-.48,11.27,3.11,14.8,9.7,9.54,23-.51,34.29,2.85,4.29,1.27,21.41,12.75,28.52,15a57.74,57.74,0,0,0,19.36,2.52,29.36,29.36,0,0,0,13.51-4c10.66-6.27,12-20.25,6.79-30.66-4.57-9.17-8.34-16.19-7.83-26.6a28.09,28.09,0,0,1,8.54-18.79,23.12,23.12,0,0,0,4.64-6.13c1.8-3.7.67-6.57.5-10.35a32.93,32.93,0,0,1,.89-8.35,9.27,9.27,0,0,1,4.31-5.56,9.73,9.73,0,0,1,10.26-.07c3.89,2.16,3.87,5.53,5.27,9.27s3.94,7,7.84,8.44c3.55,1.35,8.14,1.47,10,4.76,1,1.8.86,4,.67,6.06-1.17,12.65-2,29.49,12.51,34.88,9.24,3.43,17,.6,25.45-3.82,3.78-2,8.36-4.27,12.24-2.1,3.52,2,3.68,8,4.09,11.63a17.79,17.79,0,0,0,5.9,11.8,21.66,21.66,0,0,0,15.54,4.89c5.64-.37,11.16-2.77,15.88-5.77s8.05-8.29,11.89-12.14c2.2-2.21,3.83-4.55,6.33-6.4a19.84,19.84,0,0,1,9.78-3.8c3.2-.32,6.25-.76,9.39-1.37,7.83-1.51,13.45-9.62,12.37-16.48-.56-3.53-3.57-5.76-4.08-9.31-.59-4.08-.56-7.53,3.23-11.49C387.42,58.66,423.74,57.57,426.7,21c-3.28,7.76-2.84,16.08-19.84,27.69-5.7,3.89-11.46,6.82-22,11.65-9.25,4.22-21.48,12.7-24,19.55-3.28,8.8,5.22,13.22,4.31,21.41a13.86,13.86,0,0,1-8,10.43c-4.31,1.83-9.14,1.34-13.43,3.08-6.67,2.72-11.45,7.87-16.85,12.81-4.53,4.14-9.61,8.22-15.61,9.93-12.41,3.54-23.58-5-24.08-18.4-.16-4.15-1-8.3-5.45-9-4.27-.64-8.55,1.16-12.24,3.64-5.87,3.94-14.12,7-21.17,4.83-8.1-2.46-12.84-9-14.37-17.1a38.12,38.12,0,0,1-.69-7.48c.08-6,2.55-13.13-4-16.76-5.73-3.17-11.13-4.31-13.94-10.85-2.69-6.26-5.11-14.68-13.52-14-7.68.61-15.32,6.75-16.58,14.46-.5,3.07.1,6.2.52,9.24a13,13,0,0,1-2.88,10.64c-3.69,4.91-8.8,9-10.84,15-1.63,4.79-2.08,10,.08,14.69,1.35,2.92,3.27,5.55,4.84,8.36a37.32,37.32,0,0,1,4.49,21.26c-.48,4.67-3.59,8.92-7,11.92a25.29,25.29,0,0,1-14.46,5.6c-16.71,1.15-36.35-12.59-38.78-13.52-7.11-2.73-14.35-3.16-21.88-3a21.92,21.92,0,0,1-13.78-4.72c-3.68-3-4.92-10.94-4.7-15.5.21-4.32.19-9.3-3.1-12.58-3.46-3.45-9.75-1.46-13.22,1.77-3.86,3.58-5.87,7.44-11.37,9a16.77,16.77,0,0,1-6.84,0c-3.23-.47-6.63-.66-9.66.58A17.21,17.21,0,0,0,29.47,131c-3.78,4.88-3.32,11.23-5.62,16.69s-7.91,8.64-12.92,11a59.16,59.16,0,0,1-6.84,2.86c-5.89,1.88-11,3.32-15.82,7.4-3.11,2.62-4.76,5.84-7.55,9.16-3.69,4.4-7.46,4.92-7.46,4.92a15,15,0,0,0,7.56-3.13c5.26-4.19,7.42-9.79,18.72-13,8.16-2.3,18-5.29,22.94-9.8"/><path class="cls-3" d="M.9,157.7c1.93-.5,12.69-3.94,17.48-10.72,4.44-6.29,3.62-13.34,8.16-19.4l.89-1.16c3.15-3.77,7.64-6.13,12.22-5.84,5.5.34,9.91,1.87,14.77-1.24,5.9-3.79,10.55-11.75,18-12,6.69-.19,12.51,3.72,13.3,10.63.42,3.68-.08,7.55.24,11.27.65,7.58,5.09,12.59,12.79,13.22,5.5.45,12.91-.12,17.93,1.7a76.43,76.43,0,0,1,15.18,7.68c15.17,9.74,27.66,10.09,36,4.83,11.7-7.43,10.43-20.14,6.59-27.62-2.63-5.15-6.87-9.48-8.66-15-2.9-8.92,2.1-16.71,7.39-23.48,2.79-3.58,6.47-6.56,7.79-11.09,1.44-5-1.16-10.61-.57-15.73a13.37,13.37,0,0,1,5.72-9.34,13.18,13.18,0,0,1,2.68-1.24A31.52,31.52,0,0,0,196,50c3.61-2.37,8.17-4.4,12.48-2.62,5.53,2.27,7.06,7.57,8.36,12.89s4.71,8.72,10,10.78c3.15,1.23,6.62,2.26,8.77,4.86,2.51,3,2.56,7.37,2.11,11.28-.87,7.6-.87,15.5,4.54,21.62a15.79,15.79,0,0,0,7,4.43c6.8,2.24,12.3.37,18.55-2.53,4-1.88,7.26-4.07,11.54-5.44,3.57-1.14,9.5-1.39,11.67,2.43a10.05,10.05,0,0,1,1.06,3.44c1.05,6.21-.87,12.55,4.33,17.06,13.13,11.42,26.94-4.2,35.89-12,2.67-2.33,5.93-5,9.43-5.26,3.85-.23,10.53-.56,13.93-2.46A9.66,9.66,0,0,0,361.1,100c0-2.33-1.35-4-2.71-5.75-9.16-11.87,1.26-23.89,11.34-30.49,6.88-4.51,19.49-9.36,26.71-13.2,10.09-5.37,21.42-16.07,23.17-27.94C417.19,31.24,406,40.73,397.54,45.7S380,54.08,371.16,58.23c-8.57,4-28.73,15.85-21.11,31.74,1.9,4,6,6.39,5.91,11.18-.09,6.46-9.24,5.55-13.57,6.13-6.59.88-9.22,4.67-14.4,9-6.93,5.72-14.07,12.8-23.93,9.49-5.43-1.82-7.71-7.3-8.32-12.92a75.15,75.15,0,0,0-.85-8c-1.94-8.79-11.8-5.21-17.19-1.85-8.95,5.59-23.85,11.12-30.94-.11a22.46,22.46,0,0,1-3.31-11.17c-.19-4.32.52-9.21-.76-13.36-2.2-7.1-9.26-7.76-15.19-10.14-5.78-2.3-8.36-6.15-9.3-12.33-.52-3.45-.73-6-2.25-9.23a9.63,9.63,0,0,0-5.61-5.1A12.5,12.5,0,0,0,198.5,44.5c-3.16,3-5.91,5.5-10.26,6.67a16.83,16.83,0,0,0-9.66,6.16c-3.81,5-3.1,10.61-2.74,17.87.19,3.86.2,7.54-2,10.42A84.83,84.83,0,0,1,166,94.69a25.53,25.53,0,0,0-6.78,11c-1.4,4.62.87,9.54,3.55,13.23,2.84,3.92,6.46,7.32,8.6,11.67,3.33,6.76.84,15.65-4.92,20.06-15.87,12.17-42.25-7.66-53.89-11.29-8.22-2.56-20-1.69-23.42-11C88,125.19,88,121.6,87.91,118.09c-.14-7.49-.82-14.66-10.45-16.3-4-.68-9.7,1.52-13.63,4.4-3.67,2.7-6.82,6.49-10.91,8.22a30.46,30.46,0,0,1-12,2.07c-9.45,0-13.5,4.61-16.7,9.45s-3.38,10.31-5.72,15.24c-2.73,5.75-6.92,8.78-12.63,10.64-10.36,3.4-18.95,5-25.95,14.3-2.43,3.22-3.52,5.51-6.78,9.37-2.3,2.72-7.23,5.42-9.74,6.36a31.3,31.3,0,0,0,12.16-6.16c3.07-2.64,5.36-6.06,8.3-8.84,5.41-5.11,10.08-7.33,17.07-9.14"/><path class="cls-3" d="M-38,176a23.13,23.13,0,0,0,6.67-7.05c1.09-1.8,4.28-8.32,6.48-10.87,8.8-10.24,16-8.72,25.57-12.57,10.28-4.15,14.67-13.4,17.63-23.67,1.77-6.16,6.9-10.72,12.84-13.09s12.57-1.36,18.61-3.34c6.54-2.15,11.3-9,17.63-11.83a18.15,18.15,0,0,1,13.9-.13A22.3,22.3,0,0,1,94,105.51l.06.13.12.3a24.2,24.2,0,0,1,1.68,6.81,55.57,55.57,0,0,0,1,6.6c.42,1.89,2.39,4.18,3.83,5.37,3.7,3.08,7.93,3.45,12.24,5.51a99.07,99.07,0,0,1,10.85,5.84c8.28,5.32,12.39,10.91,23.21,11.57,5,.31,11-1.09,14.41-5,3.85-4.37,3.39-12-.26-16.34-1.79-2.13-3.43-3.63-5.34-5.53-5.31-5.28-8.75-8.84-7.06-16.27,1-4.29,4-8.28,7.17-11.35,2.85-2.75,6-4.8,8-8.32a22.74,22.74,0,0,0,2.71-10.38,38.25,38.25,0,0,0-.84-10.65c-.73-3.31-.74-7.29.9-10.39a11.46,11.46,0,0,1,6.5-5.12c3.27-1.13,6.75-1.07,10.08-1.87a32.31,32.31,0,0,0,8.14-2.7c5.68-3.1,7.87-9.2,14.49-11.06,5.45-1.54,12-.27,15.61,4.35,2.06,2.65,3,6,3.75,9.27a47.9,47.9,0,0,0,3.68,11.32,16.69,16.69,0,0,0,9.19,7.68c5.83,2.19,12.89,3.56,15.62,9.84,1.81,4.19,1.74,8.93,1.63,13.5-.09,3.7.28,6.44,3.4,8.9a14.16,14.16,0,0,0,9,2.64c8.14-.22,14.57-6.34,22.18-8.62,5.84-1.74,11,.12,12.36,6.38,1.32,6.08.26,12,5.88,16.13,3.19,2.34,7.32,1.59,10.66,0,4.26-2,6.36-6.25,10.35-8.6a38.62,38.62,0,0,1,8.27-3.91c2.07-.63,5.06-.5,6-2.94,1.15-3-.47-5.86-1.79-8.5-5.88-11.72.55-23.37,12.24-31.65,17-12.05,52.61-18.72,57.64-34.2-2.18,15.49-36.36,25.94-51.9,35.51-8.44,5.2-17.16,15-15.14,25.36.83,4.26,2.81,7.19,4.73,10.85,1.56,3,.8,7-2.64,8.2-3.19,1.1-8.7.74-11.93,1.88a18.43,18.43,0,0,0-6.06,4.25c-4.2,4.11-8.13,9-13.95,10.56A12.42,12.42,0,0,1,304.14,119c-3.81-2.76-4.22-6.28-4.15-10.67.08-5.53-1.35-10.69-6.83-12.34-4.5-1.36-9.59,1.08-13.59,3.26-5.76,3.12-12.63,6.14-19.33,5.66-8.75-.63-12.32-8.76-11.75-16.7.25-3.48.86-7,.24-10.44-2.37-13-20.87-6.86-26-22.19-1.18-3.51-1.29-19.45-16.05-18.06C201.48,38,197.11,42.26,192,46c-3.18,2.35-7,2.89-10.59,4.41a23.12,23.12,0,0,0-7.21,4.69c-8.37,8.34,1.13,22.12-7.14,31.1-5.33,5.78-12.49,11.23-13.27,19.72A16.27,16.27,0,0,0,157.11,117c2.68,3.24,4.51,6.5,7.21,9.75a16.11,16.11,0,0,1,3.31,12.9c-2.22,12.19-15.37,12.73-27,9.09-4-1.23-10.55-4.45-16.5-7.81a59.77,59.77,0,0,0-17-6.89C97,132,94,129.9,93.93,122.61a84.84,84.84,0,0,0-.67-10.53,16.93,16.93,0,0,0-2.9-7l-.33-.42-.09-.12c-.06-.08-.14-.16-.21-.24L89.5,104a.3.3,0,0,0-.08-.08c-.12-.14-.25-.28-.38-.41l0,0c-.31-.31-.63-.61-1-.89a24,24,0,0,0-5.46-3.35l-.24-.11c-5.55-2.44-12.7-1.48-18.45,2.41l-.18.13.15,0c-2.67,1.81-4.92,4.15-7.49,6.12-8.71,6.69-11.6,3.49-17.52,4.1a22.78,22.78,0,0,0-18,11.38c-5,8.56-.81,22.71-26.85,28.27-11.7,2.5-15.93,8.21-24,19.45-1.88,2.63-6.33,7-16.53,9.11,3.19-.67,7.17-3.17,8.47-4.07"/><path class="cls-3" d="M-46.34,173.6a25.76,25.76,0,0,1-9.61,3.8c5.86-1.05,10.62-1,18.32-8.89,3.84-3.94,5.73-8.95,9-13.2,2.93-3.78,7.18-7.94,18.68-10.79,9.18-2.28,18.92-6.59,22.61-16,1.4-3.57,1.8-7.41,3-11a16.2,16.2,0,0,1,5.17-8.24,20,20,0,0,1,8.18-4c9.46-2.3,18.67-2.42,26.3-9.13a47.08,47.08,0,0,1,11.3-7.7c8.9-4.11,19.69-1.45,26.76,5.66,2.6,2.61,4.31,4.45,5.29,9.1,1.42,6.73,1,13,7,17.32,3.16,2.25,7,3.38,10.31,5.4,5,3,10.33,5.49,15.1,8.89,5.33,3.79,9.39,7.42,16.08,8.14,14.06,1.52,16.4-8.53,8-16.67-3.88-3.76-7.68-7.12-9.87-12.2a19.17,19.17,0,0,1-1.06-7.63c.18-6.45,3.63-10.32,7.61-14.93,6.71-7.78,11.1-10.44,9.85-23.92-.48-5.17-3-10.16-1-15.29,1.69-4.4,5.09-6.37,9.66-7.36,3.17-.69,6.56-.23,9.65-1a36.26,36.26,0,0,0,7.28-3c4.8-2.51,8.79-7.73,13.47-10.3,9.5-5.23,22.51-4.82,27.18,6.56,1.49,3.63,1.64,7.66,2.54,11.48C231.71,54,236,58.29,240.69,61c4.82,2.76,11,3.32,14.91,7.56,6.72,7.24.64,27.93,14.62,27.19,10-.53,17-11,27.57-9.23,4.29.72,7,4.24,7.95,8.58,1.21,5.53.07,15.21,8,14.88,3.54-.14,6.48-3.14,8.85-5.65a11.59,11.59,0,0,1,4.48-2.91c2.26-.83,4.46-1.62,6.77-2.37,6.19-2,5.16-7.92,3.09-11.67-2.52-4.6-1.66-9.08-.78-14.19C338.57,59.3,360.86,50,373.4,44.55c22.31-9.63,29.23-17.51,31.66-20.79-6.19,8.35-22,14-31.5,17.76-9.68,3.87-52,16.7-42.48,42.5,1.15,3.12,3.2,6.65,1.18,10.2a9.93,9.93,0,0,1-5.3,4.19,19.38,19.38,0,0,0-6.09,3.32c-2.29,2.17-5.31,3.39-8.83,1.15-2-1.25-2.74-3.45-3.43-5.54-1.36-4.13-1.36-9.55-5.11-12.43s-9.67-2.31-14-1.17C284.59,85,280,88.94,275,89.14c-7.14.29-8.22-7.36-9.23-12.74-1.55-8.19-6.59-12.74-14.47-14.43-6.5-1.39-13.24-5.37-14-12.52a55.37,55.37,0,0,0-3.2-14c-3-7.16-10-12.69-17.82-13.33-10.59-.87-19.45,5.24-26.14,12.94-5,5.77-13,5.78-20,5.36a16.43,16.43,0,0,0-12.66,4.39c-6.42,6-3.49,13.93-1.29,21a26.44,26.44,0,0,1,.41,10.56c-.86,5.47-1.89,8.2-6.16,11.64-3,2.44-7.21,5.28-9.18,8.7-9.2,16,5.25,24.66,9.38,28.2,2.9,2.49,6.68,4.77,6.13,9.26-.71,5.75-8.44,7-14.23,4.51-6-2.56-10-6.83-16.92-11.31-8.37-5.42-15.79-9.43-20.81-17.06-2.56-3.9-3.53-7.86-5-12.19a23.4,23.4,0,0,0-8.33-11.46,40.34,40.34,0,0,0-6.94-4.18,21.54,21.54,0,0,0-11.22-2.13,29.6,29.6,0,0,0-13.84,5.77C52.42,91.75,47,97.5,37.64,99.27c-2.65.5-5.34.8-8,1.24-4.15.68-9.43,1.5-12.15,5-2.88,3.69-3.83,8-4.68,12.55-.66,3.51-1.45,7.18-3.44,10.22-6.55,10-20.08,11.17-26.29,13.61-12.33,4.85-15.13,11.63-18.91,19.46a30.09,30.09,0,0,1-10.5,12.25"/></g><line class="cls-4" x1="253.82" y1="20.72" x2="25.03" y2="20.72"/><line class="cls-5" x1="20" y1="28.14" x2="20" y2="154.33"/><line class="cls-4" x1="27.54" y1="159.28" x2="256.34" y2="159.28"/><line class="cls-5" x1="261.36" y1="151.86" x2="261.36" y2="25.67"/><path class="cls-6" d="M261.36,23.2V20.72h-2.51m0,138.56h2.51v-2.47M20,156.81v2.47h2.51m0-138.56H20V23.2"/><g class="cls-7"><path class="cls-3" d="M553.21,36.57c-6.2,6.24-3.3,16.37-7.28,23.65-1.95,3.57-7.33,5.24-11.24,5-6.53-.37-12.62-3.88-17.27,2.69-2.49,3.52-4.23,10.62-9.6,10.24-5-.36-8-4.34-8.86-9-.46-2.4-.08-4.54,0-6.92.25-4.77,0-11.19-3.75-14.52-10-9-22.77,1.55-34.1-1.27-4.3-1.07-21.78-11.66-28.92-13.52a57.3,57.3,0,0,0-19.29-1.62,29.12,29.12,0,0,0-13.2,4.55c-10.28,6.69-11,20.6-5.34,30.68,4.94,8.87,9,15.65,9,26a27.87,27.87,0,0,1-7.6,19,22.59,22.59,0,0,0-4.32,6.29c-1.62,3.74-.37,6.53,0,10.26a32.64,32.64,0,0,1-.5,8.32,9.23,9.23,0,0,1-4,5.7,9.65,9.65,0,0,1-10.16.53c-4-2-4.08-5.3-5.64-8.93s-4.22-6.73-8.15-8c-3.58-1.17-8.12-1.08-10.14-4.26-1.1-1.73-1-3.92-.95-6,.6-12.57.62-29.29-14-34-9.31-3-16.87.17-25,4.93-3.66,2.13-8.1,4.61-12,2.64-3.57-1.79-4-7.8-4.58-11.34a17.62,17.62,0,0,0-6.38-11.42,21.4,21.4,0,0,0-15.6-4.14c-5.57.63-10.93,3.25-15.47,6.44s-7.61,8.57-11.23,12.56c-2.08,2.29-3.59,4.68-6,6.63a19.59,19.59,0,0,1-9.52,4.2c-3.15.47-6.15,1-9.23,1.78-7.69,1.86-12.89,10.14-11.51,16.89.72,3.46,3.79,5.54,4.46,9,.77,4,.9,7.44-2.68,11.53-16.9,19.3-52.83,22-54.1,58.43,2.9-7.84,2.08-16.06,18.4-28.33,5.47-4.11,11-7.27,21.3-12.54,9-4.6,20.7-13.55,22.92-20.44,2.86-8.87-5.76-12.87-5.23-21a13.72,13.72,0,0,1,7.43-10.69c4.18-2,9-1.74,13.16-3.66,6.48-3,11-8.31,16.11-13.45,4.3-4.31,9.14-8.58,15-10.55,12.13-4.07,23.58,3.86,24.69,17.14.34,4.1,1.38,8.17,5.81,8.62,4.25.44,8.41-1.54,11.95-4.16,5.64-4.18,13.66-7.55,20.75-5.75,8.14,2.07,13.12,8.34,15,16.29a38.39,38.39,0,0,1,1,7.37c.18,5.91-1.94,13.13,4.72,16.42,5.82,2.88,11.22,3.77,14.3,10.12,2.95,6.08,5.73,14.31,14,13.27,7.57-1,14.86-7.39,15.76-15.08.36-3.06-.38-6.14-.93-9.13a12.9,12.9,0,0,1,2.37-10.67c3.43-5,8.31-9.31,10.06-15.33,1.39-4.81,1.6-10-.75-14.54-1.47-2.84-3.49-5.35-5.17-8.07a36.87,36.87,0,0,1-5.41-20.85c.26-4.64,3.15-9,6.43-12.12a25.07,25.07,0,0,1,14.06-6.2c16.5-1.89,36.58,10.82,39,11.63,7.16,2.38,14.36,2.48,21.81,2a21.71,21.71,0,0,1,13.86,4c3.78,2.76,5.37,10.62,5.36,15.14,0,4.29.24,9.22,3.64,12.32,3.58,3.26,9.73,1,13-2.35,3.66-3.72,5.47-7.64,10.85-9.42a16.61,16.61,0,0,1,6.78-.28c3.21.32,6.59.35,9.54-1a17.14,17.14,0,0,0,6.78-5.71c3.52-5,2.77-11.27,4.8-16.78s7.44-8.92,12.3-11.45a60,60,0,0,1,6.64-3.14c5.76-2.13,10.71-3.78,15.34-8,3-2.73,4.45-6,7.06-9.42,3.46-4.52,7.17-5.2,7.17-5.2a14.85,14.85,0,0,0-7.34,3.44c-5,4.39-6.91,10-18,13.7-8,2.65-17.62,6.06-22.28,10.75"/><path class="cls-3" d="M574.55,35c-1.89.58-12.39,4.48-16.83,11.41-4.11,6.43-3,13.37-7.2,19.58-.4.59-.73,1.06-.83,1.19-3,3.88-7.29,6.42-11.83,6.34-5.47-.08-9.91-1.41-14.58,1.9C517.6,79.4,513.36,87.49,506,88c-6.61.49-12.56-3.12-13.65-9.93-.59-3.62-.27-7.48-.75-11.15-1-7.47-5.62-12.24-13.27-12.52-5.47-.19-12.78.71-17.83-.87a74.93,74.93,0,0,1-15.39-6.92c-15.47-8.95-27.86-8.74-35.83-3.15C398,51.39,399.87,63.92,404,71.16c2.84,5,7.23,9.07,9.26,14.44,3.28,8.7-1.33,16.64-6.26,23.59-2.61,3.67-6.11,6.79-7.21,11.34-1.2,5,1.62,10.46,1.28,15.55a12.37,12.37,0,0,1-2.5,6.71,12,12,0,0,1-2.75,2.8,12.48,12.48,0,0,1-2.59,1.35,31,31,0,0,0-7.09,3.5c-3.47,2.5-7.9,4.72-12.24,3.16-5.58-2-7.34-7.19-8.86-12.4S360,132.78,354.64,131c-3.18-1.07-6.66-1.93-8.91-4.42-2.62-2.89-2.87-7.18-2.6-11.07.52-7.57.16-15.4-5.48-21.21a15.57,15.57,0,0,0-7.09-4.07c-6.84-1.91-12.2.18-18.26,3.34-3.91,2-7,4.36-11.18,5.91-3.49,1.3-9.35,1.81-11.67-1.88a10.2,10.2,0,0,1-1.21-3.35c-1.32-6.1.29-12.47-5.06-16.71-13.52-10.71-26.49,5.38-35,13.54-2.54,2.44-5.65,5.27-9.11,5.64-3.8.41-10.4,1-13.68,3.07a9.59,9.59,0,0,0-5,8.7c.06,2.32,1.52,3.89,2.95,5.58,9.6,11.34-.17,23.72-9.85,30.71-6.62,4.78-18.89,10.15-25.87,14.29-9.75,5.77-20.48,16.89-21.68,28.72,2-8.7,12.63-18.61,20.81-23.91s17-9.09,25.57-13.6c8.31-4.36,27.73-17,19.46-32.39-2.06-3.84-6.2-6.07-6.35-10.82-.21-6.39,8.9-5.91,13.16-6.68,6.48-1.17,8.92-5.05,13.86-9.51,6.6-6,13.36-13.32,23.27-10.49,5.46,1.56,8,6.88,8.83,12.42a70.42,70.42,0,0,0,1.2,7.83c2.32,8.62,11.92,4.63,17.1,1.06,8.62-5.94,23.12-12.09,30.66-1.3a22.39,22.39,0,0,1,3.78,10.92c.38,4.26-.1,9.14,1.36,13.2,2.5,6.93,9.52,7.27,15.51,9.35,5.82,2,8.55,5.71,9.76,11.79.68,3.4,1,5.91,2.65,9a9.52,9.52,0,0,0,5.79,4.8A12.4,12.4,0,0,0,384,156c3-3.11,5.6-5.73,9.86-7.08a16.69,16.69,0,0,0,9.29-6.53c3.55-5.09,2.59-10.66,1.9-17.83-.36-3.81-.53-7.46,1.5-10.41a83.59,83.59,0,0,1,7.33-9.34,25,25,0,0,0,6.22-11.19c1.19-4.63-1.28-9.4-4.11-12.94-3-3.75-6.73-7-9-11.16-3.61-6.55-1.55-15.47,4-20.1,15.16-12.77,42.19,5.68,53.89,8.74C473,60.37,484.65,59,488.45,68c1.29,3.1,1.49,6.65,1.71,10.13.48,7.41,1.48,14.48,11.09,15.66,4,.49,9.54-1.94,13.3-5C518.06,86,521,82.09,525,80.2a29.87,29.87,0,0,1,11.82-2.6c9.36-.43,13.16-5.18,16.11-10.12s2.88-10.36,5-15.35c2.44-5.82,6.46-9,12-11.12C580,37.18,588.47,35.16,595,25.67c2.26-3.29,3.24-5.62,6.29-9.59,2.15-2.79,6.91-5.68,9.35-6.73A31,31,0,0,0,598.86,16c-2.91,2.75-5,6.25-7.82,9.13-5.12,5.31-9.65,7.72-16.49,9.83"/><path class="cls-3" d="M612.27,15.11A22.92,22.92,0,0,0,606,22.39c-1,1.84-3.86,8.44-5.92,11.06C591.8,44,584.58,42.81,575.3,47.06c-10,4.57-13.92,13.94-16.39,24.25-1.47,6.18-6.34,10.92-12.12,13.54S534.4,86.77,528.51,89c-6.39,2.43-10.79,9.41-16.93,12.52a18,18,0,0,1-13.76.76,22.11,22.11,0,0,1-13.11-11.41l-.06-.13c0-.09-.09-.19-.14-.29a24.43,24.43,0,0,1-2-6.67,55.59,55.59,0,0,0-1.29-6.49c-.5-1.86-2.55-4-4-5.15-3.8-2.87-8-3-12.37-4.9a96,96,0,0,1-11-5.29c-8.45-4.89-12.77-10.24-23.52-10.41-5-.08-10.79,1.58-14,5.62-3.63,4.49-2.83,12,1,16.17,1.87,2,3.56,3.43,5.54,5.23,5.5,5,9.07,8.36,7.73,15.8-.77,4.29-3.59,8.38-6.59,11.56-2.69,2.85-5.77,5-7.5,8.61a22.5,22.5,0,0,0-2.22,10.4,38.06,38.06,0,0,0,1.31,10.51c.88,3.24,1.07,7.19-.42,10.33a11.33,11.33,0,0,1-6.2,5.37c-3.19,1.27-6.63,1.36-9.9,2.31a32,32,0,0,0-7.94,3c-5.49,3.33-7.38,9.47-13.85,11.62-5.33,1.76-11.88.8-15.66-3.61-2.16-2.53-3.23-5.8-4.14-9a47.37,47.37,0,0,0-4.15-11.05,16.53,16.53,0,0,0-9.45-7.19c-5.87-1.9-12.93-2.94-15.91-9-2-4.07-2.13-8.76-2.23-13.29-.08-3.67-.58-6.37-3.77-8.66a14.06,14.06,0,0,0-9.05-2.21c-8.05.59-14.14,6.94-21.58,9.54-5.71,2-10.89.39-12.52-5.76-1.59-6-.81-11.88-6.56-15.71-3.27-2.18-7.32-1.24-10.56.46-4.13,2.16-6,6.48-9.87,9a38.63,38.63,0,0,1-8,4.24c-2,.72-5,.72-5.79,3.18-1,3,.73,5.78,2.16,8.34,6.36,11.34.51,23.17-10.69,31.91-16.28,12.7-51.26,20.92-55.54,36.48,1.46-15.44,34.83-27.34,49.8-37.53,8.11-5.52,16.31-15.61,13.84-25.8-1-4.18-3.11-7-5.17-10.53-1.69-2.87-1.11-6.92,2.24-8.24,3.11-1.24,8.58-1.13,11.73-2.41a18.13,18.13,0,0,0,5.81-4.48c4-4.26,7.64-9.23,13.34-11.09A12.28,12.28,0,0,1,276,87c3.9,2.56,4.47,6,4.6,10.38.16,5.48,1.82,10.53,7.32,11.91,4.52,1.14,9.45-1.51,13.32-3.84,5.55-3.35,12.23-6.66,18.88-6.49,8.7.23,12.6,8.13,12.4,16-.09,3.46-.54,7,.24,10.34,2.93,12.78,21,5.85,26.76,20.8,1.33,3.42,2.16,19.21,16.72,17.17,5.12-.72,9.25-5.12,14.11-9.05,3.05-2.47,6.84-3.17,10.29-4.85a22.62,22.62,0,0,0,6.93-5c7.92-8.65-2.12-21.86,5.66-31.13,5-6,11.86-11.69,12.25-20.14a16.12,16.12,0,0,0-3.76-10.86c-2.8-3.09-4.76-6.24-7.58-9.34a15.92,15.92,0,0,1-3.86-12.62c1.64-12.18,14.64-13.3,26.37-10.23,4,1,10.65,3.93,16.69,7a59.58,59.58,0,0,0,17.16,6c10.05,1.65,13.13,3.55,13.55,10.77a83.11,83.11,0,0,0,1.14,10.4,16.7,16.7,0,0,0,3.19,6.85l.34.4a.52.52,0,0,0,.1.11l.21.24a3,3,0,0,1,.24.26l.09.08c.13.13.26.26.4.38l0,0c.32.29.66.58,1,.84a23.46,23.46,0,0,0,5.56,3.07l.24.1c5.61,2.16,12.65.89,18.16-3.22l.17-.14-.14,0c2.56-1.92,4.69-4.34,7.15-6.41,8.32-7,11.32-4,17.16-4.85A22.6,22.6,0,0,0,556.33,70c4.59-8.71-.22-22.54,25.32-29.22,11.47-3,15.4-8.85,22.86-20.36,1.75-2.68,6-7.19,16-9.77-3.13.81-7,3.47-8.21,4.42"/><path class="cls-3" d="M620.62,17.07a25.65,25.65,0,0,1,9.35-4.2c-5.76,1.3-10.48,1.46-17.75,9.64C608.6,26.58,607,31.63,603.88,36c-2.73,3.87-6.75,8.19-18,11.54-9,2.67-18.44,7.38-21.67,16.88-1.22,3.59-1.44,7.41-2.43,11.06a16.2,16.2,0,0,1-4.75,8.4,19.77,19.77,0,0,1-7.93,4.31c-9.26,2.71-18.38,3.24-25.63,10.23a46.58,46.58,0,0,1-10.84,8.14c-8.64,4.48-19.44,2.34-26.77-4.39-2.69-2.47-4.46-4.21-5.65-8.77-1.71-6.6-1.59-12.88-7.72-16.84-3.24-2.09-7.11-3-10.47-4.88-5.07-2.79-10.48-5-15.35-8.12-5.45-3.51-9.64-6.93-16.3-7.34-14-.87-15.85,9.19-7.14,16.88,4,3.54,7.93,6.7,10.33,11.63a18.89,18.89,0,0,1,1.4,7.52c.12,6.39-3.13,10.37-6.86,15.12-6.29,8-10.53,10.85-8.68,24.14.71,5.1,3.39,9.93,1.67,15.11-1.48,4.42-4.76,6.54-9.24,7.72-3.11.82-6.48.53-9.51,1.44a36.11,36.11,0,0,0-7.07,3.31c-4.64,2.7-8.36,8-12.88,10.81-9.17,5.61-22.07,5.8-27.21-5.26-1.64-3.54-2-7.52-3.05-11.26-1.48-5.23-5.95-9.3-10.69-11.72-4.9-2.51-11-2.79-15.11-6.81-7-6.87-1.9-27.64-15.71-26.27-9.85,1-16.3,11.68-26.9,10.39-4.27-.52-7.12-3.88-8.26-8.14-1.44-5.43-.75-15.06-8.62-14.37-3.49.3-6.27,3.4-8.5,6a11.42,11.42,0,0,1-4.31,3.09c-2.2.92-4.35,1.81-6.6,2.65-6,2.28-4.75,8.08-2.53,11.71,2.71,4.44,2.05,8.91,1.41,14-1.74,13.82-23.4,24.07-35.58,30-21.66,10.55-28.15,18.67-30.41,22,5.75-8.55,21.19-14.83,30.4-19,9.41-4.28,50.73-18.9,40.15-44-1.28-3-3.47-6.44-1.64-10a9.89,9.89,0,0,1,5.07-4.4,18.88,18.88,0,0,0,5.87-3.56c2.18-2.25,5.11-3.6,8.7-1.53,2,1.15,2.87,3.29,3.65,5.33,1.54,4,1.78,9.39,5.62,12.08s9.69,1.84,14,.52c4.77-1.48,9.1-5.58,14.11-6,7.06-.61,8.47,6.92,9.72,12.2,1.9,8,7.11,12.33,15,13.64,6.5,1.08,13.35,4.71,14.47,11.76a54.55,54.55,0,0,0,3.8,13.73c3.31,7,10.47,12.13,18.25,12.4,10.53.38,19-6.07,25.31-14,4.71-5.95,12.6-6.32,19.52-6.22a16.28,16.28,0,0,0,12.34-4.92c6.08-6.26,2.82-13.94.33-20.87a26.11,26.11,0,0,1-.89-10.45c.6-5.45,1.5-8.2,5.57-11.8,2.89-2.55,6.9-5.55,8.7-9,8.38-16.24-6.32-24.19-10.56-27.51-3-2.34-6.84-4.42-6.5-8.89.44-5.74,8.05-7.32,13.89-5.12,6,2.27,10.24,6.32,17.27,10.43,8.53,5,16.07,8.63,21.38,16,2.72,3.74,3.85,7.62,5.51,11.84a23.16,23.16,0,0,0,8.78,11,39.24,39.24,0,0,0,7.05,3.83,21.47,21.47,0,0,0,11.21,1.6,29.28,29.28,0,0,0,13.45-6.34c6.73-5.89,11.83-11.83,21-14,2.61-.61,5.26-1,7.89-1.6C552.76,92,558,91,560.5,87.4c2.67-3.78,3.42-8.12,4.06-12.64.5-3.51,1.11-7.18,2.94-10.28,6-10.21,19.39-12,25.42-14.67,12-5.36,14.47-12.2,17.86-20.14a29.67,29.67,0,0,1,9.84-12.6"/></g><line class="cls-8" x1="512.61" y1="20.72" x2="284.66" y2="20.72"/><line class="cls-5" x1="279.65" y1="28.14" x2="279.65" y2="154.33"/><line class="cls-8" x1="287.17" y1="159.28" x2="515.12" y2="159.28"/><line class="cls-5" x1="520.13" y1="151.86" x2="520.13" y2="25.67"/><path class="cls-6" d="M520.13,23.2V20.72h-2.51m0,138.56h2.51v-2.47m-240.48,0v2.47h2.51m0-138.56h-2.51V23.2"/><g class="cls-9"><path class="cls-3" d="M507.73,89.59c8.76-1.39,12.43-11.36,20-14.92,3.71-1.74,9.1.1,12.14,2.6,5.1,4.2,8,10.68,15.66,8.1,4.12-1.38,9.77-6.12,13.92-2.61,3.82,3.24,3.9,8.27,1.88,12.55-1.05,2.23-2.64,3.75-4.16,5.62-3,3.73-6.62,9.13-5.59,14,2.8,13.31,19.46,12.3,27,21.34,2.87,3.43,10.79,22.46,15.49,28.23a58,58,0,0,0,14.74,12.8,29.43,29.43,0,0,0,13.45,4.16c12.35.67,21.19-10.25,22.62-21.79,1.26-10.17,2-18.1,8.18-26.49a28.12,28.12,0,0,1,17.5-10.94,23,23,0,0,0,7.26-2.54c3.55-2.08,4.19-5.1,6.14-8.34a32.72,32.72,0,0,1,5.36-6.47,9.24,9.24,0,0,1,6.66-2.25,9.73,9.73,0,0,1,8.59,5.62c2,4,.17,6.74-.73,10.63s-.57,8,1.86,11.37c2.22,3.09,6,5.72,5.72,9.51-.13,2.07-1.49,3.82-2.79,5.43-8,9.88-18,23.47-8.86,36,5.8,8,13.83,9.9,23.31,10.89,4.25.44,9.33,1.07,11.37,5,1.84,3.58-1.38,8.73-3,12a17.81,17.81,0,0,0-1.6,13.09,21.57,21.57,0,0,0,10.24,12.66c4.9,2.81,10.83,3.86,16.42,4s11.3-2.45,16.62-3.53c3-.63,5.71-1.68,8.82-1.84a19.77,19.77,0,0,1,10.24,2.25c2.85,1.5,5.64,2.82,8.59,4.05,7.36,3.06,16.53-.58,19.41-6.9,1.49-3.24.22-6.76,1.75-10,1.77-3.73,3.7-6.59,9.05-7.78,25.25-5.65,56.12,13.52,78.83-15.35-7,4.65-11.25,11.83-31.84,12.1-6.91.09-13.32-.65-24.81-2.47-10-1.6-24.92-1.3-30.84,3-7.6,5.52-3,13.9-8.25,20.22a13.85,13.85,0,0,1-12.41,4.28c-4.6-.85-8.36-3.94-12.9-4.86-7-1.42-13.88.23-21.12,1.36-6.07.94-12.55,1.54-18.5-.36-12.3-3.91-16.89-17.18-9.89-28.65,2.16-3.54,3.74-7.47.41-10.47s-7.77-3.76-12.21-3.73c-7.07,0-15.62-2-20.31-7.68-5.39-6.53-5.72-14.61-2.52-22.2a38.56,38.56,0,0,1,3.56-6.61c3.37-4.92,9.39-9.53,5.93-16.18-3-5.8-6.88-9.74-5.61-16.74,1.22-6.71,3.86-15.07-3.52-19.16-6.73-3.73-16.5-2.84-21.81,2.89-2.11,2.28-3.34,5.22-4.67,8a13.1,13.1,0,0,1-8.29,7.28c-5.79,2-12.3,2.62-17.31,6.48-4,3.09-7.27,7.19-8,12.29-.5,3.18-.35,6.43-.6,9.64a37.34,37.34,0,0,1-8,20.2c-3,3.61-7.93,5.45-12.46,6A25.28,25.28,0,0,1,618.62,171c-14.56-8.29-23.33-30.6-24.84-32.71-4.41-6.21-10.21-10.57-16.54-14.64a21.84,21.84,0,0,1-8.88-11.54c-1.44-4.5,1.95-11.84,4.65-15.52,2.57-3.48,5.3-7.64,4.38-12.2-1-4.78-7.32-6.6-12-5.84-5.19.86-9,3-14.44,1.21A16.71,16.71,0,0,1,545.27,76c-2.43-2.17-5.16-4.21-8.38-4.85a17.23,17.23,0,0,0-8.92.61c-5.84,2-9,7.53-13.9,10.8s-11.37,2.83-16.83,2A59.18,59.18,0,0,1,490,83.12c-5.95-1.7-11-3.3-17.28-2.59-4,.46-7.19,2.24-11.35,3.46-5.5,1.62-8.94,0-8.94,0a15.06,15.06,0,0,0,8,1.58c6.7-.59,11.6-4.06,22.77-.47,8.08,2.6,17.95,5.56,24.54,4.52"/><path class="cls-3" d="M489.4,78.19c1.88.65,12.75,3.73,20.49.73,7.18-2.78,10.39-9.11,17.52-11.64l1.39-.48c4.71-1.4,9.76-.89,13.41,1.88,4.4,3.33,7.22,7,13,7.14,7,.11,15.29-3.95,21.61,0,5.67,3.54,8.36,10,5.2,16.22-1.69,3.29-4.24,6.24-6,9.52-3.65,6.67-2.72,13.31,3.34,18.09,4.34,3.42,10.82,7,14,11.33a75.92,75.92,0,0,1,8.4,14.79c7.26,16.51,17.47,23.71,27.29,23.91,13.85.27,19.82-11,20.76-19.37.65-5.75-.48-11.7,1.07-17.28,2.51-9,11-12.76,19.14-15.47,4.3-1.44,9-1.89,12.62-4.94,4-3.36,4.91-9.48,8.22-13.42a12.57,12.57,0,0,1,6-4,12.82,12.82,0,0,1,3.91-.64,13,13,0,0,1,2.91.45,31.72,31.72,0,0,0,7.85,1.38c4.32,0,9.24.86,11.85,4.71,3.35,5,1.69,10.23-.17,15.37s-.89,9.87,2.38,14.52c1.95,2.77,4.27,5.54,4.63,8.9.41,3.91-2,7.55-4.48,10.56-4.93,5.85-9.3,12.44-8.17,20.52a15.79,15.79,0,0,0,3.34,7.55c4.43,5.62,10.05,7.11,16.86,8.14,4.4.67,8.3.63,12.62,1.86,3.61,1,8.69,4.09,8.38,8.48a10.3,10.3,0,0,1-1,3.45c-2.56,5.75-7.66,10-5.83,16.61,4.62,16.77,24.77,11.39,36.55,9.82,3.52-.47,7.74-.92,10.77.83,3.34,1.93,9.08,5.35,13,5.65a9.67,9.67,0,0,0,9.24-4.11c1.33-1.92,1.08-4.07.92-6.29-1.07-15,14.26-19.21,26.31-19.14,8.23.05,21.42,3,29.56,3.77C889.61,208.7,905,206,913,197.13c-6.81,5.88-21.36,7.62-31.18,7.07s-19.22-2.71-28.91-4.16c-9.35-1.4-32.69-2.67-35.13,14.78-.61,4.35,1.44,8.63-1.26,12.58-3.65,5.33-10.77-.48-14.7-2.39-6-2.91-10.27-1.21-16.95-.51-8.94.94-18.8,2.88-25.18-5.32-3.52-4.52-2.39-10.35.21-15.37a73.32,73.32,0,0,0,3.68-7.09c3.25-8.4-7-10.87-13.29-11.05-10.55-.29-26-3.92-25.73-17.2A22.55,22.55,0,0,1,728,157.33c2.22-3.7,5.52-7.38,6.75-11.55,2.09-7.13-3.42-11.58-7.06-16.84s-3.56-9.75-.92-15.42c1.47-3.17,2.71-5.4,3.23-8.93a9.65,9.65,0,0,0-1.86-7.36,12.49,12.49,0,0,0-11.48-4.1c-4.29.74-8,1.32-12.24-.12a16.84,16.84,0,0,0-11.46-.2c-5.91,2-8.45,7.13-12.16,13.38-2,3.31-4,6.39-7.41,7.58A86,86,0,0,1,661.83,117a25.34,25.34,0,0,0-11.72,5.4c-3.73,3.07-4.55,8.42-4.36,13,.2,4.84,1.33,9.68.71,14.48-1,7.48-8,13.51-15.19,14-19.95,1.37-31-29.74-38.66-39.21-5.43-6.68-15.73-12.47-13.44-22.09.78-3.29,2.74-6.3,4.63-9.26,4-6.32,7.42-12.67.3-19.36-3-2.79-8.92-4.1-13.79-3.87-4.55.22-9.26,1.64-13.63.81A30.28,30.28,0,0,1,545.51,66c-7.88-5.23-13.8-3.63-19.14-1.36s-8.52,6.72-13.2,9.53c-5.45,3.28-10.61,3.49-16.4,1.89-10.51-2.9-18.58-6.28-29.53-2.44-3.81,1.34-6,2.65-10.84,4.06-3.41,1-9,.52-11.62-.09a31.45,31.45,0,0,0,13.54,1.6c4-.51,7.81-2.09,11.8-2.78,7.33-1.27,12.46-.54,19.28,1.82"/><path class="cls-3" d="M446.87,71.89a23.31,23.31,0,0,0,9.46-2.19c1.9-.9,8.16-4.56,11.41-5.48,13-3.66,18.17,1.61,28.25,3.67,10.86,2.23,19.64-3,27.78-10,4.88-4.15,11.67-5.11,17.94-3.8s11.22,5.82,17.35,7.51c6.64,1.83,14.38-1.23,21.23-.11A18.16,18.16,0,0,1,592,69.09a22.3,22.3,0,0,1,3.87,17.09l0,.14c0,.11,0,.21-.06.32a24.12,24.12,0,0,1-2.37,6.6,55.23,55.23,0,0,0-2.81,6.06c-.7,1.8-.32,4.79.22,6.59,1.39,4.61,4.7,7.25,7.15,11.36a98.55,98.55,0,0,1,5.81,10.85c4,9,4.29,16,12.95,22.49,4,3,9.72,5.14,14.77,3.79,5.63-1.51,9.46-8.11,8.82-13.76-.31-2.77-.85-4.92-1.39-7.56-1.51-7.34-2.41-12.21,3.11-17.46,3.19-3,7.91-4.69,12.25-5.49,3.89-.72,7.7-.66,11.23-2.54a22.69,22.69,0,0,0,8-7.14,38.41,38.41,0,0,0,5.18-9.34c1.22-3.17,3.42-6.48,6.5-8.16a11.4,11.4,0,0,1,8.25-.67c3.35.86,6.21,2.83,9.42,4a32.26,32.26,0,0,0,8.29,2.25c6.44.56,11.64-3.31,18.19-1.2,5.38,1.73,10.14,6.41,10.59,12.26.26,3.35-.83,6.64-2,9.79a48.15,48.15,0,0,0-3.19,11.47,16.63,16.63,0,0,0,3.41,11.48c3.65,5.05,8.77,10.1,7.57,16.84-.8,4.49-3.49,8.4-6.1,12.14-2.12,3-3.33,5.53-2.09,9.3a14.28,14.28,0,0,0,6,7.19c6.91,4.31,15.65,2.76,23.26,5.08,5.82,1.78,9.09,6.17,6.76,12.14-2.26,5.8-6.42,10.15-4,16.7,1.36,3.71,5.22,5.37,8.87,5.91,4.65.7,8.76-1.69,13.39-1.45a38.94,38.94,0,0,1,9.05,1.32c2.07.62,4.49,2.38,6.6.86,2.63-1.89,2.85-5.14,3.21-8.08,1.58-13,13.38-19.16,27.7-19.6,20.82-.64,54.2,13.49,66.94,3.38-10.38,11.69-44.64,1.51-62.88.89-9.9-.34-22.58,3-26.64,12.76-1.66,4-1.63,7.54-2,11.65-.35,3.34-3.22,6.29-6.74,5.38-3.27-.85-7.65-4.2-11-5a18.1,18.1,0,0,0-7.4.19c-5.77,1.1-11.72,3-17.46,1.08a12.41,12.41,0,0,1-7.7-7.33c-1.65-4.4-.05-7.57,2.44-11.19,3.13-4.56,4.79-9.65,1.13-14.06-3-3.61-8.59-4.39-13.12-4.8-6.52-.58-13.93-1.86-19.24-6-6.94-5.37-5.41-14.12-.55-20.42,2.13-2.76,4.58-5.36,6-8.56,5.22-12.15-13.59-17.26-9.4-32.87,1-3.58,9.69-16.92-3.38-23.93-4.6-2.46-10.58-1.35-16.87-1-3.95.19-7.46-1.49-11.27-2.18a23,23,0,0,0-8.6-.09c-11.59,2.33-11.29,19.06-23.14,22-7.65,1.87-16.62,2.45-22,9.1A16.18,16.18,0,0,0,642,130.69c.44,4.18.16,7.91.61,12.12a16.1,16.1,0,0,1-4.37,12.57c-8.6,8.93-19.85,2.1-27.56-7.38-2.63-3.23-6.33-9.55-9.43-15.63a60,60,0,0,0-10.36-15.14c-7.2-7.33-8.58-10.71-4.62-16.84a82.48,82.48,0,0,0,5.26-9.14,16.94,16.94,0,0,0,1.49-7.48c0-.17,0-.35,0-.53s0-.1,0-.15,0-.21,0-.31,0-.24,0-.36,0-.08,0-.12l-.09-.55s0,0,0,0c-.09-.43-.19-.86-.32-1.28a23.88,23.88,0,0,0-2.69-5.81l-.14-.22c-3.28-5.1-9.77-8.26-16.71-8.19h-.22l.15.05c-3.23,0-6.4.74-9.63,1-11,.76-11.59-3.51-16.86-6.28a22.83,22.83,0,0,0-21.27-.45c-8.92,4.35-13.24,18.47-38,8.71-11.13-4.39-17.81-2-30.74,2.94-3,1.15-9.13,2.32-18.81-1.55,3,1.21,7.73,1.32,9.31,1.3"/><path class="cls-3" d="M441.24,65.32a26,26,0,0,1-10.11-2.15c5.46,2.37,9.4,5,20.19,2.72,5.37-1.15,9.72-4.28,14.81-6,4.53-1.54,10.37-2.65,21.54,1.33,8.9,3.18,19.4,5,27.69-.84,3.13-2.19,5.59-5.18,8.57-7.56a16.29,16.29,0,0,1,8.87-4,19.94,19.94,0,0,1,9,1.21c9.15,3.31,16.89,8.31,27,6.94a46.82,46.82,0,0,1,13.68-.17c9.68,1.5,17.21,9.67,19.16,19.51.72,3.61,1.13,6.08-.62,10.51-2.53,6.39-6.37,11.43-3.74,18.3,1.39,3.63,4,6.7,5.61,10.21,2.47,5.29,5.57,10.29,7.67,15.75,2.34,6.1,3.72,11.38,8.89,15.68,10.88,9,18.38,2,15.86-9.49-1.16-5.28-2.46-10.18-1.48-15.62a19,19,0,0,1,3.34-7c3.71-5.27,8.73-6.58,14.59-8.23,9.89-2.77,15-2.56,21.44-14.48,2.46-4.57,3.15-10.1,7.64-13.29,3.83-2.72,7.76-2.49,12.12-.78,3,1.18,5.59,3.43,8.6,4.49a36.52,36.52,0,0,0,7.72,1.52c5.39.56,11.6-1.58,16.93-1.14,10.8.9,21.41,8.43,19,20.49-.77,3.86-2.87,7.3-4.23,11-1.9,5.14-.69,11.12,1.73,15.91,2.49,5,7.32,8.84,8.25,14.54,1.58,9.75-14.92,23.63-2.86,30.74,8.6,5.07,20.22.2,28.08,7.56,3.17,3,3.49,7.4,1.88,11.54-2.06,5.28-8.36,12.71-1.55,16.84,3,1.83,7.14,1,10.49.18a11.51,11.51,0,0,1,5.35.06c2.34.55,4.62,1.11,6.95,1.76,6.27,1.75,8.68-3.74,9-8,.44-5.23,3.64-8.49,7.2-12.25,9.65-10.22,33.38-5.66,46.82-3.24,23.92,4.31,34,1.57,37.88.18-9.77,3.54-26.08-.55-36.07-2.62-10.21-2.13-52.54-14.83-58.89,11.93-.77,3.23-1,7.3-4.66,9.14a9.93,9.93,0,0,1-6.74.57,19,19,0,0,0-6.9-.6c-3.11.53-6.3-.11-8-3.93-.94-2.13-.38-4.39.2-6.52,1.15-4.19,4.15-8.7,2.62-13.18s-6.78-7.27-11.06-8.73c-4.75-1.64-10.72-.88-15.06-3.52-6.1-3.71-2.77-10.68-.64-15.72,3.24-7.67,1.55-14.26-4.08-20-4.64-4.75-8.06-11.79-4.77-18.19a54.93,54.93,0,0,0,5.08-13.44c1.45-7.64-1.3-16.1-7.47-21-8.34-6.58-19.11-6.39-28.93-3.67-7.38,2-14-2.37-19.6-6.57a16.39,16.39,0,0,0-13-3.34c-8.69,1.48-10.6,9.67-12.7,16.79a26.26,26.26,0,0,1-5.5,9c-3.73,4.09-6.11,5.79-11.56,6.29-3.87.37-8.93.42-12.46,2.18-16.5,8.22-9.26,23.45-7.78,28.68,1,3.68,2.93,7.67,0,11.11-3.78,4.4-10.91,1.16-14.36-4.11-3.55-5.43-4.57-11.24-7.84-18.78-4-9.15-7.94-16.59-7.9-25.73,0-4.66,1.41-8.5,2.57-12.91a23.34,23.34,0,0,0-.61-14.16,40.36,40.36,0,0,0-3.46-7.32,21.65,21.65,0,0,0-8.18-8,29.65,29.65,0,0,0-14.72-2.85c-9,.79-16.67,2.59-25.45-1.12-2.49-1-4.9-2.28-7.36-3.39-3.83-1.73-8.69-4-12.89-2.56-4.44,1.49-7.63,4.58-10.84,7.87-2.49,2.56-5.18,5.19-8.52,6.62-11,4.71-22.91-1.8-29.43-3.2-13-2.78-19,1.32-26.52,5.76a30.05,30.05,0,0,1-15.52,4.4"/></g><line class="cls-4" x1="772.46" y1="20.72" x2="543.66" y2="20.72"/><line class="cls-5" x1="538.64" y1="28.14" x2="538.64" y2="154.33"/><line class="cls-4" x1="546.18" y1="159.28" x2="774.97" y2="159.28"/><line class="cls-5" x1="780" y1="151.86" x2="780" y2="25.67"/><path class="cls-6" d="M780,23.2V20.72h-2.51m0,138.56H780v-2.47m-241.36,0v2.47h2.51m0-138.56h-2.51V23.2"/></svg>