<svg id="Layer_1" data-name="Layer 1" xmlns="http://www.w3.org/2000/svg" viewBox="0 0 480 240"><defs><style>.cls-1{fill:#ec1c24;}.cls-2{fill:#d0d2d3;}</style></defs><title>logo-numerik-hut-ri-2004</title><path class="cls-1" d="M145.46,48.33c-1.6,1.58-6.47,2.48-8.68,2.84a89.79,89.79,0,0,1-10.6,1.09c-8.11.31-20.08-1.75-28.14-2.6C77.69,47.51,64,60.76,61.15,69.47c0,0,5.65-5.49,18.9-4.58,7.42.51,15.32,2.23,22.8,2.14a53.71,53.71,0,0,0,20.25-3.91,69,69,0,0,0,22.36-14.79"/><path class="cls-1" d="M180.88,84.21c-15.65-12.35-41.38-8.6-55,7.24-12.63,14.66-16.89,40.62.73,57.88,13.91,13.63,33,10.29,41.07,6.46,12.22-5.76,18-14.23,18-14.23-9.92,9.42-29.88,11.44-41.83-1.7-6.41-7-9.4-18.66-6.2-30.48a34.51,34.51,0,0,1,30.18-26.47c8-.84,13,1.3,13,1.3"/><path class="cls-1" d="M196.83,104.8c4.6,10,3.9,23.61-.17,37-.12-4.29-3.12-8.22-5.28-10.14-3.79-3.36-6.41-4.37-10.37-8.35-6.24-6.27-4.42-12.17-3.11-19.91.83-4.93.14-11.56-5-14,12.06,0,19.94,6.87,23.92,15.47"/><path class="cls-1" d="M78.6,47.05c-15.18-1.29-35.72,3.63-38.35,19.69-1.8,11,6.3,18.63,16.91,19,0,0-7.69-10.62-.72-22.47A35.72,35.72,0,0,1,78.6,47.05"/><path class="cls-1" d="M114.94,85.15a55.11,55.11,0,0,0-11.7,25.08c-.9,5.77-2,12.78-3.24,18.55a36.92,36.92,0,0,1-14.62,23.05c-7.21,5.28-21.15,9.36-21.15,9.36S75.13,149,79,132.3C82.94,114.86,81.48,98,98.68,83c15.88-13.8,37.69-11.61,37.66-11.6a43.16,43.16,0,0,0-21.4,13.71"/><path class="cls-1" d="M174.82,167c-8.17,3.46-18.82,5.07-27.41,3.88-5.78-.8-12.81-1.72-18.67-2.25a37.41,37.41,0,0,0-26.34,7.22c-7.17,5.32-15.18,17.34-15.18,17.34s14.86-6.82,31.94-5.65C137,188.73,152.68,195,172,183c17.87-11.08,22.23-32.34,22.21-32.32A43.38,43.38,0,0,1,174.82,167"/><path class="cls-1" d="M385.46,48.33c-1.6,1.58-6.47,2.48-8.68,2.84a89.79,89.79,0,0,1-10.6,1.09c-8.11.31-20.08-1.75-28.14-2.6-20.35-2.15-34.07,11.1-36.89,19.81,0,0,5.65-5.49,18.9-4.58,7.42.51,15.32,2.23,22.8,2.14a53.71,53.71,0,0,0,20.25-3.91,69,69,0,0,0,22.36-14.79"/><path class="cls-2" d="M420.88,84.21c-15.65-12.35-41.38-8.6-55,7.24-12.63,14.66-16.89,40.62.73,57.88,13.91,13.63,32.95,10.29,41.07,6.46,12.22-5.76,18-14.23,18-14.23-9.92,9.42-29.88,11.44-41.83-1.7-6.41-7-9.4-18.66-6.2-30.48a34.51,34.51,0,0,1,30.18-26.47c8.05-.84,13.05,1.3,13.05,1.3"/><path class="cls-2" d="M436.83,104.8c4.6,10,3.9,23.61-.17,37-.12-4.29-3.12-8.22-5.28-10.14-3.79-3.36-6.41-4.37-10.37-8.35-6.24-6.27-4.42-12.17-3.11-19.91.83-4.93.14-11.56-5-14,12.06,0,19.94,6.87,23.92,15.47"/><path class="cls-2" d="M318.6,47.05c-15.18-1.29-35.72,3.63-38.35,19.69-1.8,11,6.3,18.63,16.91,19,0,0-7.69-10.62-.72-22.47A35.72,35.72,0,0,1,318.6,47.05"/><path class="cls-1" d="M354.94,85.15a55.11,55.11,0,0,0-11.7,25.08c-.9,5.77-2.05,12.78-3.24,18.55a36.92,36.92,0,0,1-14.62,23.05c-7.21,5.28-21.15,9.36-21.15,9.36S315.13,149,319,132.3c4-17.44,2.53-34.32,19.73-49.26,15.88-13.8,37.69-11.61,37.66-11.6a43.16,43.16,0,0,0-21.4,13.71"/><path class="cls-2" d="M414.82,167c-8.17,3.46-18.82,5.07-27.41,3.88-5.78-.8-12.81-1.72-18.67-2.25a37.41,37.41,0,0,0-26.34,7.22c-7.17,5.32-15.18,17.34-15.18,17.34s14.86-6.82,31.94-5.65C377,188.73,392.68,195,412,183c17.87-11.08,22.23-32.34,22.21-32.32A43.38,43.38,0,0,1,414.82,167"/></svg>